<svg version="1.1" id="Layer_1" xmlns="http://www.w3.org/2000/svg" xmlns:xlink="http://www.w3.org/1999/xlink" x="0px" y="0px"
	 viewBox="0 0 25 23" style="enable-background:new 0 0 25 23;" xml:space="preserve">
<g>
	<path d="M24.4,6.5l-3.5-5.3c0,0,0-0.1-0.1-0.1v0c-0.2-0.3-0.3-0.5-0.7-0.5H4.9C4.5,0.5,4.4,0.7,4.2,1c0,0,0,0.1-0.1,0.1L0.6,6.5
		C0.6,6.5,0.5,6.6,0.5,6.7c0,0.1,0.1,0.3,0.1,0.4c0.1,0.1,0.1,0.2,0.2,0.2c0.2,0.1,0.3,0.1,0.5,0.1h0.5v14.7c0,0.2,0.2,0.4,0.4,0.4
		h7.4h5.6h7.4c0.2,0,0.4-0.2,0.4-0.4V7.5h0.5c0.2,0,0.4-0.1,0.5-0.1l0,0c0.1-0.1,0.2-0.1,0.2-0.2c0.1-0.1,0.1-0.2,0.1-0.4
		C24.5,6.6,24.4,6.5,24.4,6.5z M14.9,21.8h-4.8v-5.7c0-0.2,0.1-0.5,0.3-0.6c0.2-0.2,0.4-0.3,0.7-0.3h2.9c0.3,0,0.5,0.1,0.7,0.3
		s0.3,0.4,0.3,0.6V21.8z M22.3,21.8h-6.6v-5.7c0-0.5-0.2-0.9-0.5-1.2c-0.3-0.3-0.7-0.5-1.2-0.5h-2.9c-0.5,0-0.9,0.2-1.2,0.5
		c-0.3,0.3-0.5,0.7-0.5,1.2v5.7H2.7V7.5h5.1c0.1,1.1,0.6,2.1,1.4,2.8c0.8,0.8,2,1.3,3.3,1.3s2.5-0.5,3.3-1.3
		c0.8-0.7,1.3-1.7,1.4-2.8h5.1V21.8z M8.6,7.1c0-1,0.4-2,1.1-2.6c0.7-0.7,1.7-1.1,2.8-1.1c1.1,0,2.1,0.4,2.8,1.1
		c0.7,0.7,1.1,1.6,1.1,2.6c0,1-0.4,2-1.1,2.6c-0.7,0.7-1.7,1.1-2.8,1.1c-1.1,0-2.1-0.4-2.8-1.1C9,9,8.6,8.1,8.6,7.1z M23.6,6.7h-0.9
		h-5.5c-0.1-1.1-0.6-2.1-1.4-2.8c-0.8-0.8-2-1.3-3.3-1.3S10,3.1,9.2,3.9C8.4,4.7,7.9,5.6,7.8,6.7H2.3H1.4c0,0,0,0,0,0l3.4-5.2
		c0,0,0.1-0.1,0.1-0.1c0-0.1,0-0.1,0-0.1h15.1c0,0,0,0.1,0,0.1l0,0c0,0.1,0.1,0.1,0.1,0.1L23.6,6.7C23.6,6.7,23.6,6.7,23.6,6.7z"/>
	<path d="M10.4,7.8h1.3V9c0,0.2,0.1,0.3,0.3,0.3h0.9c0.2,0,0.3-0.1,0.3-0.3V7.8h1.3c0.2,0,0.3-0.1,0.3-0.3V6.7
		c0-0.2-0.1-0.3-0.3-0.3h-1.3V5.1c0-0.2-0.1-0.3-0.3-0.3h-0.9c-0.2,0-0.3,0.1-0.3,0.3v1.2h-1.3c-0.2,0-0.3,0.1-0.3,0.3v0.8
		C10.1,7.7,10.3,7.8,10.4,7.8z"/>
	<path d="M11,18.3c-0.2,0-0.3,0.1-0.3,0.3s0.1,0.3,0.3,0.3c0.2,0,0.3-0.1,0.3-0.3S11.2,18.3,11,18.3z"/>
	<path d="M17.7,19.2h2.9c0.2,0,0.4-0.2,0.4-0.4v-3.2c0-0.2-0.2-0.4-0.4-0.4h-2.9c-0.2,0-0.4,0.2-0.4,0.4v3.2
		C17.3,19,17.5,19.2,17.7,19.2z M18.1,16h2.1h0v2.4h-2.1V16z"/>
	<path d="M17.7,13.5h2.9c0.2,0,0.4-0.2,0.4-0.4V9.9c0-0.2-0.2-0.4-0.4-0.4h-2.9c-0.2,0-0.4,0.2-0.4,0.4v3.2
		C17.3,13.3,17.5,13.5,17.7,13.5z M18.1,10.3h2.1h0v2.4h-2.1V10.3z"/>
	<path d="M7.3,15.3H4.4c-0.2,0-0.4,0.2-0.4,0.4v3.2c0,0.2,0.2,0.4,0.4,0.4h2.9c0.2,0,0.4-0.2,0.4-0.4v-3.2
		C7.7,15.4,7.5,15.3,7.3,15.3z M6.9,18.5H4.8V16h2.1V18.5z"/>
	<path d="M7.3,9.5H4.4C4.2,9.5,4,9.7,4,9.9v3.2c0,0.2,0.2,0.4,0.4,0.4h2.9c0.2,0,0.4-0.2,0.4-0.4V9.9C7.7,9.7,7.5,9.5,7.3,9.5z
		 M6.9,12.7H4.8v-2.4h2.1V12.7z"/>
</g>
</svg>
