<svg version="1.1" id="Layer_1" xmlns="http://www.w3.org/2000/svg" xmlns:xlink="http://www.w3.org/1999/xlink" x="0px" y="0px"
	 viewBox="0 0 20 21" style="enable-background:new 0 0 20 21;" xml:space="preserve">
 
<g>
	<path   d="M10,8.5c-0.4,0-0.8,0.3-0.8,0.8v4.2c0,0.4,0.3,0.8,0.8,0.8s0.8-0.3,0.8-0.8V9.2C10.8,8.8,10.4,8.5,10,8.5z"/>
	<path   d="M10,6L10,6C9.6,6,9.3,6.3,9.3,6.7S9.6,7.5,10,7.5s0.8-0.3,0.8-0.8S10.4,6,10,6z"/>
	<path   d="M10,1.8c-4.5,0-8.2,3.7-8.2,8.3c0,4.6,3.7,8.3,8.2,8.3s8.2-3.7,8.2-8.3C18.2,5.5,14.5,1.8,10,1.8z M10,16.9
		c-3.7,0-6.8-3-6.8-6.8c0-3.7,3-6.8,6.8-6.8c3.7,0,6.8,3,6.8,6.8C16.8,13.8,13.7,16.9,10,16.9z"/>
</g>
</svg>
