<?xml version="1.0" encoding="utf-8"?>
<!-- Generator: Adobe Illustrator 26.0.1, SVG Export Plug-In . SVG Version: 6.00 Build 0)  -->
<svg version="1.1" id="Layer_1" xmlns="http://www.w3.org/2000/svg" xmlns:xlink="http://www.w3.org/1999/xlink" x="0px" y="0px"
	 viewBox="0 0 24 25" style="enable-background:new 0 0 24 25;" xml:space="preserve">
<g>
	<path d="M10.3,1.1c0.5-0.3,1.1-0.5,1.7-0.5s1.2,0.2,1.7,0.5l7.9,4.8c0.5,0.3,0.9,0.7,1.2,1.2c0.3,0.5,0.4,1.1,0.4,1.7v0.8
		c0,0.3-0.1,0.6-0.3,0.8c-0.2,0.2-0.5,0.3-0.8,0.3s-0.6-0.1-0.8-0.3C21.1,10.2,21,9.9,21,9.6V8.7c0-0.2,0-0.4-0.1-0.6
		c-0.1-0.2-0.2-0.3-0.4-0.4L12.6,3c-0.2-0.1-0.4-0.2-0.6-0.2S11.6,2.9,11.4,3L3.5,7.8C3.4,7.9,3.2,8,3.1,8.2C3,8.3,3,8.5,3,8.7v7.7
		c0,0.2,0,0.4,0.1,0.6s0.2,0.3,0.4,0.4l6,3.7c0.1,0.1,0.2,0.2,0.3,0.3c0.1,0.1,0.2,0.3,0.2,0.4s0,0.3,0,0.4s-0.1,0.3-0.2,0.4
		c-0.1,0.1-0.2,0.2-0.3,0.3c-0.1,0.1-0.3,0.2-0.4,0.2c-0.1,0-0.3,0-0.4,0c-0.1,0-0.3-0.1-0.4-0.1l-6-3.7c-0.5-0.3-0.9-0.7-1.2-1.2
		S0.7,17,0.7,16.4V8.7c0-0.6,0.1-1.2,0.4-1.7s0.7-0.9,1.2-1.2L10.3,1.1z"/>
	<path d="M23.3,16.2c-0.2-0.2-0.5-0.3-0.8-0.3H22c-0.1-0.7-0.4-1.4-0.8-2l0.3-0.3c0.2-0.2,0.3-0.5,0.3-0.8s-0.1-0.6-0.3-0.8
		s-0.5-0.3-0.8-0.3s-0.6,0.1-0.8,0.3l-0.3,0.3c-0.6-0.3-1.3-0.6-2-0.7v-0.5c0-0.3-0.1-0.6-0.3-0.8S16.8,10,16.5,10s-0.6,0.1-0.8,0.3
		s-0.3,0.5-0.3,0.8v0.5c-0.7,0.1-1.4,0.4-2,0.8L13.1,12c-0.2-0.2-0.5-0.3-0.8-0.3s-0.6,0.1-0.8,0.3s-0.3,0.5-0.3,0.8
		s0.1,0.6,0.3,0.8l0.3,0.3c-0.4,0.6-0.7,1.3-0.8,2c0,0,0,0-0.1,0h-0.4c-0.3,0-0.6,0.1-0.8,0.3S9.4,16.7,9.4,17s0.1,0.6,0.3,0.8
		s0.5,0.3,0.8,0.3H11c0.1,0.7,0.4,1.4,0.8,2l-0.3,0.3c-0.2,0.2-0.3,0.5-0.3,0.8s0.1,0.6,0.3,0.8s0.5,0.3,0.8,0.3s0.6-0.1,0.8-0.3
		l0.3-0.3c0.6,0.4,1.3,0.7,2,0.8V23c0,0.3,0.1,0.6,0.3,0.8s0.5,0.3,0.8,0.3s0.6-0.1,0.8-0.3s0.3-0.5,0.3-0.8v-0.5
		c0.7-0.1,1.4-0.4,2-0.8l0.3,0.3c0.2,0.2,0.5,0.3,0.8,0.3s0.6-0.1,0.8-0.3s0.3-0.5,0.3-0.8s-0.1-0.6-0.3-0.8l-0.3-0.3
		c0.4-0.6,0.7-1.3,0.8-2h0.5c0.3,0,0.6-0.1,0.8-0.3s0.3-0.5,0.3-0.8S23.5,16.4,23.3,16.2z M19.6,18.4c-0.1,0.4-0.4,0.8-0.7,1.1
		c-0.3,0.3-0.7,0.5-1.1,0.7c-0.4,0.2-0.9,0.3-1.3,0.3c-0.5,0-0.9-0.1-1.3-0.3c-0.4-0.1-0.8-0.4-1.1-0.7c-0.3-0.3-0.5-0.7-0.7-1.1
		c-0.2-0.4-0.3-0.9-0.3-1.3c0-0.5,0.1-0.9,0.3-1.3c0.1-0.4,0.4-0.8,0.7-1.1c0.3-0.3,0.7-0.5,1.1-0.7c0.4-0.2,0.9-0.3,1.3-0.3
		s0.9,0.1,1.3,0.3c0.4,0.1,0.8,0.4,1.1,0.7c0.3,0.3,0.5,0.7,0.7,1.1c0.2,0.4,0.3,0.9,0.3,1.3C19.9,17.6,19.8,18,19.6,18.4z"/>
</g>
</svg>
