<svg version="1.1" id="Layer_1" xmlns="http://www.w3.org/2000/svg" xmlns:xlink="http://www.w3.org/1999/xlink" x="0px" y="0px"
	 viewBox="0 0 20 20" style="enable-background:new 0 0 20 20;" xml:space="preserve">
 
<path   d="M15,6.5h-3.1v-4c0-0.6-0.5-1-1-1H1.7c-0.6,0-1,0.5-1,1v11.7c0,1.2,0.8,2.2,1.8,2.5c0.1,0.4,0.3,0.7,0.6,1
	c1.1,1.1,2.8,1.1,3.8,0c0.3-0.3,0.5-0.6,0.6-0.9h3.3h1.7c0.1,0.3,0.3,0.6,0.6,0.9c1.1,1.1,2.8,1.1,3.8,0c0.3-0.3,0.5-0.7,0.6-1
	c1.1-0.4,1.8-1.4,1.8-2.5v-3.3C19.4,8.4,17.4,6.5,15,6.5z M2.7,3.5h7.1v4v7.3H7.5c-0.1-0.3-0.3-0.6-0.6-0.9c-1.1-1.1-2.8-1.1-3.8,0
	C3,14,2.8,14.2,2.7,14.3c0-0.1,0-0.1,0-0.2V3.5z M4.6,16.3c-0.1-0.1-0.2-0.3-0.2-0.4c0-0.2,0.1-0.3,0.2-0.4c0.2-0.2,0.6-0.2,0.9,0
	c0.1,0.1,0.2,0.3,0.2,0.4c0,0.2-0.1,0.3-0.2,0.4C5.2,16.5,4.8,16.5,4.6,16.3z M14.6,16.3c-0.1-0.1-0.2-0.3-0.2-0.4
	c0-0.2,0.1-0.3,0.2-0.4c0.2-0.2,0.6-0.2,0.9,0c0.1,0.1,0.2,0.3,0.2,0.4c0,0.2-0.1,0.3-0.2,0.4C15.2,16.5,14.8,16.5,14.6,16.3z
	 M17.3,14.3c-0.1-0.1-0.2-0.3-0.3-0.4c-1.1-1.1-2.8-1.1-3.8,0c-0.3,0.3-0.5,0.6-0.6,0.9h-0.6V8.5H15c1.3,0,2.3,1,2.3,2.3v3.3
	C17.3,14.2,17.3,14.3,17.3,14.3z"/>
</svg>
