<svg version="1.1" id="Layer_1" xmlns="http://www.w3.org/2000/svg" xmlns:xlink="http://www.w3.org/1999/xlink" x="0px" y="0px"
	 viewBox="0 0 22 23" style="enable-background:new 0 0 22 23;" xml:space="preserve">
 
<g>
	<path   d="M16.5,18.7c-0.7,0-1.2-0.5-1.2-1.2s0.5-1.2,1.2-1.2s1.2,0.5,1.2,1.2S17.2,18.7,16.5,18.7z M5.5,18.7
		c-0.7,0-1.2-0.5-1.2-1.2s0.5-1.2,1.2-1.2s1.2,0.5,1.2,1.2S6.2,18.7,5.5,18.7z M11,16.4c-1.2,0-2.3-0.5-3.1-1.3
		c-1.7-1.7-1.7-4.5,0-6.3C8.7,8,9.8,7.6,11,7.6c0,0,0,0,0,0c1.2,0,2.3,0.5,3.1,1.3c1.7,1.7,1.7,4.5,0,6.3c0,0,0,0,0,0
		C13.3,16,12.2,16.4,11,16.4z M11,9.1c-0.8,0-1.5,0.3-2.1,0.9c-1.1,1.1-1.1,3,0,4.2c0.9,0.9,2.4,1.1,3.5,0.5l-2-2
		c-0.3-0.3-0.3-0.8,0-1.1c0.3-0.3,0.8-0.3,1.1,0l2,2c0.6-1.1,0.5-2.6-0.5-3.6C12.5,9.4,11.8,9.1,11,9.1L11,9.1z M18.8,13.2
		c-0.7,0-1.2-0.5-1.2-1.2c0-0.7,0.5-1.2,1.2-1.2c0.7,0,1.2,0.5,1.2,1.2C20,12.7,19.5,13.2,18.8,13.2z M3.2,13.2
		C2.5,13.2,2,12.7,2,12c0-0.7,0.5-1.2,1.2-1.2c0.7,0,1.2,0.5,1.2,1.2C4.4,12.7,3.9,13.2,3.2,13.2z M16.5,7.7c-0.7,0-1.2-0.5-1.2-1.2
		c0-0.7,0.5-1.2,1.2-1.2s1.2,0.5,1.2,1.2C17.7,7.1,17.2,7.7,16.5,7.7z M5.5,7.7c-0.7,0-1.2-0.5-1.2-1.2c0-0.7,0.5-1.2,1.2-1.2
		s1.2,0.5,1.2,1.2C6.7,7.1,6.2,7.7,5.5,7.7z M11,5.4c-0.7,0-1.2-0.5-1.2-1.2c0-0.7,0.5-1.2,1.2-1.2s1.2,0.5,1.2,1.2
		C12.2,4.8,11.7,5.4,11,5.4z"/>
</g>
</svg>
