<svg version="1.1" id="Layer_1" xmlns="http://www.w3.org/2000/svg" xmlns:xlink="http://www.w3.org/1999/xlink" x="0px" y="0px"
	 viewBox="0 0 22 22" style="enable-background:new 0 0 22 22;" xml:space="preserve">
<g>
	<path d="M4,18c0.1,0.1,0.3,0.2,0.5,0.2c0.2,0,0.4-0.1,0.5-0.2L15,8c0.3-0.3,0.3-0.8,0-1.1c-0.3-0.3-0.8-0.3-1,0L4,17
		C3.7,17.3,3.7,17.7,4,18z"/>
	<path d="M20.7,2.8l-1.5-1.5c-0.6-0.6-1.4-0.9-2.3-0.9c-0.9,0-1.7,0.3-2.3,0.9l-1.1,1.1c-0.3,0.3-0.3,0.8,0,1.1l5,5
		c0.1,0.1,0.3,0.2,0.5,0.2c0.2,0,0.4-0.1,0.5-0.2l1.1-1.1C21.9,6.1,21.9,4.1,20.7,2.8z M19.6,6.3L19,6.9l-4-4l0.6-0.6
		c0.3-0.3,0.8-0.5,1.2-0.5c0.5,0,0.9,0.2,1.2,0.5l1.5,1.5C20.3,4.6,20.3,5.7,19.6,6.3z"/>
	<path d="M16.9,9L6.6,19.4L2,20l0.6-4.6l9.9-9.9c0.3-0.3,0.3-0.8,0-1.1c-0.3-0.3-0.8-0.3-1.1,0L1.4,14.6
		c-0.1,0.1-0.2,0.3-0.2,0.4l-0.8,5.8c0,0.2,0,0.5,0.2,0.6c0.1,0.1,0.3,0.2,0.5,0.2c0,0,0.1,0,0.1,0L7,20.8c0.2,0,0.3-0.1,0.4-0.2
		L18,10.1c0.3-0.3,0.3-0.8,0-1.1C17.7,8.7,17.2,8.7,16.9,9z"/>
</g>
</svg>
