<svg version="1.1" id="Layer_1" xmlns="http://www.w3.org/2000/svg" xmlns:xlink="http://www.w3.org/1999/xlink" x="0px" y="0px"
	 viewBox="0 0 20 21" style="enable-background:new 0 0 20 21;" xml:space="preserve">
 
<g>
	<path   d="M14.4,15.1h-2.5v2.5h2.5V15.1z"/>
	<path   d="M18.8,15.1h-2.5v2.5h2.5V15.1z"/>
	<path   d="M14.4,10.7h-2.5v2.5h2.5V10.7z"/>
	<path   d="M18.8,10.7h-2.5v2.5h2.5V10.7z"/>
	<path   d="M10.6,15.1H2.5V6.3h15v3.1h1.2V6.3c0-0.3-0.1-0.7-0.4-0.9C18.1,5.2,17.8,5,17.5,5h-3.8V2.5
		c0-0.3-0.1-0.7-0.4-0.9c-0.2-0.2-0.6-0.4-0.9-0.4h-5c-0.3,0-0.6,0.1-0.9,0.4C6.4,1.9,6.3,2.2,6.2,2.5V5H2.5C2.2,5,1.9,5.2,1.6,5.4
		C1.4,5.6,1.3,6,1.2,6.3v8.8c0,0.3,0.1,0.7,0.4,0.9c0.2,0.2,0.6,0.4,0.9,0.4h8.1V15.1z M7.5,2.5h5V5h-5V2.5z"/>
</g>
</svg>
