<svg version="1.1" id="Layer_1" xmlns="http://www.w3.org/2000/svg" xmlns:xlink="http://www.w3.org/1999/xlink" x="0px" y="0px"
	 viewBox="0 0 25 24" style="enable-background:new 0 0 25 24;" xml:space="preserve">
<g>
	<g>
		<path d="M12.5,22.8c-0.7,0-1.3-0.3-1.8-1l-1.5-2c0,0-0.1-0.1-0.2-0.1H8.5c-4.2,0-6.8-1.1-6.8-6.8V8c0-4.4,2.3-6.8,6.8-6.8h8
			c4.4,0,6.8,2.3,6.8,6.8v5c0,4.4-2.3,6.8-6.8,6.8H16c-0.1,0-0.2,0-0.2,0.1l-1.5,2C13.8,22.5,13.2,22.8,12.5,22.8z M8.5,2.8
			C4.9,2.8,3.2,4.4,3.2,8v5c0,4.5,1.5,5.2,5.2,5.2H9c0.5,0,1.1,0.3,1.4,0.7l1.5,2c0.3,0.5,0.9,0.5,1.2,0l1.5-2
			c0.3-0.4,0.9-0.7,1.4-0.7h0.5c3.6,0,5.2-1.7,5.2-5.2V8c0-3.6-1.7-5.2-5.2-5.2H8.5z"/>
	</g>
	<g>
		<path d="M17.5,8.8h-10C7.1,8.8,6.8,8.4,6.8,8s0.3-0.8,0.8-0.8h10c0.4,0,0.8,0.3,0.8,0.8S17.9,8.8,17.5,8.8z"/>
	</g>
	<g>
		<path d="M13.5,13.8h-6c-0.4,0-0.8-0.3-0.8-0.8s0.3-0.8,0.8-0.8h6c0.4,0,0.8,0.3,0.8,0.8S13.9,13.8,13.5,13.8z"/>
	</g>
</g>
</svg>
