<?xml version="1.0" encoding="UTF-8" standalone="no"?><!-- Generator: Gravit.io --><svg xmlns="http://www.w3.org/2000/svg" xmlns:xlink="http://www.w3.org/1999/xlink" style="isolation:isolate" viewBox="0 0 280 250" width="280pt" height="250pt"><g><g><g opacity="0.07"><path d=" M 13 131.247 Q 50.124 88.247 88.062 131.247 Q 107.328 155.689 126.226 171.655 C 174.623 212.543 221.214 211.74 266 169.247" fill="none" vector-effect="non-scaling-stroke" stroke-width="4" stroke-dasharray="1,8" stroke="rgb(0,0,0)" stroke-linejoin="miter" stroke-linecap="round" stroke-miterlimit="3"/></g><g style="opacity:0.5;"><g opacity="0.7"><path d=" M 181.269 66.99 L 205.231 66.99 C 206.069 66.99 206.75 67.671 206.75 68.51 L 206.75 68.51 C 206.75 69.348 206.069 70.029 205.231 70.029 L 181.269 70.029 C 180.431 70.029 179.75 69.348 179.75 68.51 L 179.75 68.51 C 179.75 67.671 180.431 66.99 181.269 66.99 L 181.269 66.99 L 181.269 66.99 L 181.269 66.99 L 181.269 66.99 Z  M 196.769 75.471 L 234.231 75.471 C 235.069 75.471 235.75 76.152 235.75 76.99 L 235.75 76.99 C 235.75 77.829 235.069 78.51 234.231 78.51 L 196.769 78.51 C 195.931 78.51 195.25 77.829 195.25 76.99 L 195.25 76.99 C 195.25 76.152 195.931 75.471 196.769 75.471 L 196.769 75.471 L 196.769 75.471 L 196.769 75.471 L 196.769 75.471 Z  M 42.269 85.99 L 66.231 85.99 C 67.069 85.99 67.75 86.671 67.75 87.51 L 67.75 87.51 C 67.75 88.348 67.069 89.029 66.231 89.029 L 42.269 89.029 C 41.431 89.029 40.75 88.348 40.75 87.51 L 40.75 87.51 C 40.75 86.671 41.431 85.99 42.269 85.99 L 42.269 85.99 L 42.269 85.99 L 42.269 85.99 Z  M 32.519 94.99 L 43.981 94.99 C 44.819 94.99 45.5 95.671 45.5 96.51 L 45.5 96.51 C 45.5 97.348 44.819 98.029 43.981 98.029 L 32.519 98.029 C 31.681 98.029 31 97.348 31 96.51 L 31 96.51 C 31 95.671 31.681 94.99 32.519 94.99 L 32.519 94.99 L 32.519 94.99 Z  M 80.98 185.731 L 121.442 185.731 C 122.28 185.731 122.961 186.412 122.961 187.25 L 122.961 187.25 C 122.961 188.088 122.28 188.769 121.442 188.769 L 80.98 188.769 C 80.142 188.769 79.461 188.088 79.461 187.25 L 79.461 187.25 C 79.461 186.412 80.142 185.731 80.98 185.731 L 80.98 185.731 Z  M 126.98 195.212 L 138.442 195.212 C 139.28 195.212 139.961 195.892 139.961 196.731 L 139.961 196.731 C 139.961 197.569 139.28 198.25 138.442 198.25 L 126.98 198.25 C 126.142 198.25 125.461 197.569 125.461 196.731 L 125.461 196.731 C 125.461 195.892 126.142 195.212 126.98 195.212 Z " fill-rule="evenodd" fill="rgb(0,0,0)"/></g></g><g><path d=" M 82.935 106.224 L 82.935 104.429 C 82.935 103.863 83.395 103.404 83.961 103.404 L 83.961 103.404 C 84.527 103.404 84.987 103.863 84.987 104.429 L 84.987 106.224 C 84.987 106.79 84.527 107.25 83.961 107.25 L 83.961 107.25 C 83.395 107.25 82.935 106.79 82.935 106.224 L 82.935 106.224 L 82.935 106.224 L 82.935 106.224 L 82.935 106.224 Z  M 79.987 101.224 L 81.781 101.224 C 82.348 101.224 82.807 101.684 82.807 102.25 L 82.807 102.25 C 82.807 102.816 82.348 103.276 81.781 103.276 L 79.987 103.276 C 79.421 103.276 78.961 102.816 78.961 102.25 L 78.961 102.25 C 78.961 101.684 79.421 101.224 79.987 101.224 L 79.987 101.224 L 79.987 101.224 L 79.987 101.224 L 79.987 101.224 L 79.987 101.224 Z  M 86.14 101.224 L 87.935 101.224 C 88.501 101.224 88.961 101.684 88.961 102.25 L 88.961 102.25 C 88.961 102.816 88.501 103.276 87.935 103.276 L 86.14 103.276 C 85.574 103.276 85.115 102.816 85.115 102.25 L 85.115 102.25 C 85.115 101.684 85.574 101.224 86.14 101.224 L 86.14 101.224 L 86.14 101.224 L 86.14 101.224 L 86.14 101.224 L 86.14 101.224 Z  M 82.935 100.071 L 82.935 98.276 C 82.935 97.71 83.395 97.25 83.961 97.25 L 83.961 97.25 C 84.527 97.25 84.987 97.71 84.987 98.276 L 84.987 100.071 C 84.987 100.637 84.527 101.096 83.961 101.096 L 83.961 101.096 C 83.395 101.096 82.935 100.637 82.935 100.071 L 82.935 100.071 L 82.935 100.071 L 82.935 100.071 Z  M 133.987 47.224 L 135.781 47.224 C 136.348 47.224 136.807 47.684 136.807 48.25 L 136.807 48.25 C 136.807 48.816 136.348 49.276 135.781 49.276 L 133.987 49.276 C 133.421 49.276 132.961 48.816 132.961 48.25 L 132.961 48.25 C 132.961 47.684 133.421 47.224 133.987 47.224 L 133.987 47.224 L 133.987 47.224 L 133.987 47.224 L 133.987 47.224 Z  M 140.14 47.224 L 141.935 47.224 C 142.501 47.224 142.961 47.684 142.961 48.25 L 142.961 48.25 C 142.961 48.816 142.501 49.276 141.935 49.276 L 140.14 49.276 C 139.574 49.276 139.115 48.816 139.115 48.25 L 139.115 48.25 C 139.115 47.684 139.574 47.224 140.14 47.224 L 140.14 47.224 L 140.14 47.224 L 140.14 47.224 L 140.14 47.224 Z  M 136.935 52.224 L 136.935 50.429 C 136.935 49.863 137.395 49.404 137.961 49.404 L 137.961 49.404 C 138.527 49.404 138.987 49.863 138.987 50.429 L 138.987 52.224 C 138.987 52.79 138.527 53.25 137.961 53.25 L 137.961 53.25 C 137.395 53.25 136.935 52.79 136.935 52.224 L 136.935 52.224 L 136.935 52.224 L 136.935 52.224 Z  M 136.935 46.071 L 136.935 44.276 C 136.935 43.71 137.395 43.25 137.961 43.25 L 137.961 43.25 C 138.527 43.25 138.987 43.71 138.987 44.276 L 138.987 46.071 C 138.987 46.637 138.527 47.096 137.961 47.096 L 137.961 47.096 C 137.395 47.096 136.935 46.637 136.935 46.071 L 136.935 46.071 L 136.935 46.071 Z  M 182.987 181.224 L 184.781 181.224 C 185.348 181.224 185.807 181.684 185.807 182.25 L 185.807 182.25 C 185.807 182.816 185.348 183.276 184.781 183.276 L 182.987 183.276 C 182.421 183.276 181.961 182.816 181.961 182.25 L 181.961 182.25 C 181.961 181.684 182.421 181.224 182.987 181.224 L 182.987 181.224 L 182.987 181.224 L 182.987 181.224 Z  M 189.14 181.224 L 190.935 181.224 C 191.501 181.224 191.961 181.684 191.961 182.25 L 191.961 182.25 C 191.961 182.816 191.501 183.276 190.935 183.276 L 189.14 183.276 C 188.574 183.276 188.115 182.816 188.115 182.25 L 188.115 182.25 C 188.115 181.684 188.574 181.224 189.14 181.224 L 189.14 181.224 L 189.14 181.224 L 189.14 181.224 Z  M 185.935 186.224 L 185.935 184.429 C 185.935 183.863 186.395 183.404 186.961 183.404 L 186.961 183.404 C 187.527 183.404 187.987 183.863 187.987 184.429 L 187.987 186.224 C 187.987 186.79 187.527 187.25 186.961 187.25 L 186.961 187.25 C 186.395 187.25 185.935 186.79 185.935 186.224 L 185.935 186.224 L 185.935 186.224 Z  M 185.935 180.071 L 185.935 178.276 C 185.935 177.71 186.395 177.25 186.961 177.25 L 186.961 177.25 C 187.527 177.25 187.987 177.71 187.987 178.276 L 187.987 180.071 C 187.987 180.637 187.527 181.096 186.961 181.096 L 186.961 181.096 C 186.395 181.096 185.935 180.637 185.935 180.071 L 185.935 180.071 Z " fill-rule="evenodd" fill="rgb(165,165,165)"/><path d=" M 201.012 129.199 L 204.602 129.199 C 205.734 129.199 206.653 130.118 206.653 131.25 L 206.653 131.25 C 206.653 132.382 205.734 133.301 204.602 133.301 L 201.012 133.301 C 199.88 133.301 198.961 132.382 198.961 131.25 L 198.961 131.25 C 198.961 130.118 199.88 129.199 201.012 129.199 L 201.012 129.199 L 201.012 129.199 L 201.012 129.199 L 201.012 129.199 L 201.012 129.199 Z  M 206.91 139.199 L 206.91 135.609 C 206.91 134.477 207.829 133.558 208.961 133.558 L 208.961 133.558 C 210.093 133.558 211.012 134.477 211.012 135.609 L 211.012 139.199 C 211.012 140.331 210.093 141.25 208.961 141.25 L 208.961 141.25 C 207.829 141.25 206.91 140.331 206.91 139.199 L 206.91 139.199 L 206.91 139.199 L 206.91 139.199 L 206.91 139.199 Z  M 206.91 126.891 L 206.91 123.301 C 206.91 122.169 207.829 121.25 208.961 121.25 L 208.961 121.25 C 210.093 121.25 211.012 122.169 211.012 123.301 L 211.012 126.891 C 211.012 128.023 210.093 128.942 208.961 128.942 L 208.961 128.942 C 207.829 128.942 206.91 128.023 206.91 126.891 L 206.91 126.891 L 206.91 126.891 L 206.91 126.891 Z  M 213.32 129.199 L 216.91 129.199 C 218.042 129.199 218.961 130.118 218.961 131.25 L 218.961 131.25 C 218.961 132.382 218.042 133.301 216.91 133.301 L 213.32 133.301 C 212.188 133.301 211.269 132.382 211.269 131.25 L 211.269 131.25 C 211.269 130.118 212.188 129.199 213.32 129.199 L 213.32 129.199 L 213.32 129.199 L 213.32 129.199 L 213.32 129.199 L 213.32 129.199 Z " fill-rule="evenodd" fill="rgb(218,37,29)"/></g><g><path d=" M 47.961 43.25 C 47.961 37.179 52.89 32.25 58.961 32.25 C 65.032 32.25 69.961 37.179 69.961 43.25 C 69.961 49.321 65.032 54.25 58.961 54.25 C 52.89 54.25 47.961 49.321 47.961 43.25 Z  M 50.961 43.25 C 50.961 38.835 54.546 35.25 58.961 35.25 C 63.376 35.25 66.961 38.835 66.961 43.25 C 66.961 47.665 63.376 51.25 58.961 51.25 C 54.546 51.25 50.961 47.665 50.961 43.25 Z " fill-rule="evenodd" fill="rgb(218,37,29)"/><g opacity="0.3"><path d=" M 217.961 169.25 C 217.961 163.179 222.89 158.25 228.961 158.25 C 235.032 158.25 239.961 163.179 239.961 169.25 C 239.961 175.321 235.032 180.25 228.961 180.25 C 222.89 180.25 217.961 175.321 217.961 169.25 Z  M 220.961 169.25 C 220.961 164.835 224.546 161.25 228.961 161.25 C 233.376 161.25 236.961 164.835 236.961 169.25 C 236.961 173.665 233.376 177.25 228.961 177.25 C 224.546 177.25 220.961 173.665 220.961 169.25 Z " fill-rule="evenodd" fill="rgb(0,0,0)"/></g><g opacity="0.5"><path d=" M 200.961 101.75 C 200.961 98.163 203.873 95.25 207.461 95.25 C 211.048 95.25 213.961 98.163 213.961 101.75 C 213.961 105.337 211.048 108.25 207.461 108.25 C 203.873 108.25 200.961 105.337 200.961 101.75 Z  M 202.734 101.75 C 202.734 99.141 204.852 97.023 207.461 97.023 C 210.07 97.023 212.188 99.141 212.188 101.75 C 212.188 104.359 210.07 106.477 207.461 106.477 C 204.852 106.477 202.734 104.359 202.734 101.75 Z " fill-rule="evenodd" fill="rgb(0,0,0)"/></g><g opacity="0.5"><path d=" M 40.461 134.25 C 40.461 130.663 43.373 127.75 46.961 127.75 C 50.548 127.75 53.461 130.663 53.461 134.25 C 53.461 137.837 50.548 140.75 46.961 140.75 C 43.373 140.75 40.461 137.837 40.461 134.25 Z  M 42.234 134.25 C 42.234 131.641 44.352 129.523 46.961 129.523 C 49.57 129.523 51.688 131.641 51.688 134.25 C 51.688 136.859 49.57 138.977 46.961 138.977 C 44.352 138.977 42.234 136.859 42.234 134.25 Z " fill-rule="evenodd" fill="rgb(0,0,0)"/></g><g opacity="0.05"><path d=" M 175.999 36.712 L 178.692 36.712 C 179.541 36.712 180.23 37.401 180.23 38.25 L 180.23 38.25 C 180.23 39.099 179.541 39.788 178.692 39.788 L 175.999 39.788 C 175.15 39.788 174.461 39.099 174.461 38.25 L 174.461 38.25 C 174.461 37.401 175.15 36.712 175.999 36.712 L 175.999 36.712 L 175.999 36.712 Z  M 185.23 36.712 L 187.922 36.712 C 188.772 36.712 189.461 37.401 189.461 38.25 L 189.461 38.25 C 189.461 39.099 188.772 39.788 187.922 39.788 L 185.23 39.788 C 184.381 39.788 183.692 39.099 183.692 38.25 L 183.692 38.25 C 183.692 37.401 184.381 36.712 185.23 36.712 L 185.23 36.712 L 185.23 36.712 Z  M 180.422 44.212 L 180.422 41.519 C 180.422 40.67 181.112 39.981 181.961 39.981 L 181.961 39.981 C 182.81 39.981 183.499 40.67 183.499 41.519 L 183.499 44.212 C 183.499 45.061 182.81 45.75 181.961 45.75 L 181.961 45.75 C 181.112 45.75 180.422 45.061 180.422 44.212 L 180.422 44.212 Z  M 180.422 34.981 L 180.422 32.288 C 180.422 31.439 181.112 30.75 181.961 30.75 L 181.961 30.75 C 182.81 30.75 183.499 31.439 183.499 32.288 L 183.499 34.981 C 183.499 35.83 182.81 36.519 181.961 36.519 L 181.961 36.519 C 181.112 36.519 180.422 35.83 180.422 34.981 Z " fill-rule="evenodd" fill="rgb(0,0,0)"/></g><g opacity="0.05"><path d=" M 59.999 158.712 L 62.692 158.712 C 63.541 158.712 64.23 159.401 64.23 160.25 L 64.23 160.25 C 64.23 161.099 63.541 161.788 62.692 161.788 L 59.999 161.788 C 59.15 161.788 58.461 161.099 58.461 160.25 L 58.461 160.25 C 58.461 159.401 59.15 158.712 59.999 158.712 L 59.999 158.712 L 59.999 158.712 Z  M 69.23 158.712 L 71.922 158.712 C 72.772 158.712 73.461 159.401 73.461 160.25 L 73.461 160.25 C 73.461 161.099 72.772 161.788 71.922 161.788 L 69.23 161.788 C 68.381 161.788 67.692 161.099 67.692 160.25 L 67.692 160.25 C 67.692 159.401 68.381 158.712 69.23 158.712 L 69.23 158.712 L 69.23 158.712 Z  M 64.422 166.212 L 64.422 163.519 C 64.422 162.67 65.112 161.981 65.961 161.981 L 65.961 161.981 C 66.81 161.981 67.499 162.67 67.499 163.519 L 67.499 166.212 C 67.499 167.061 66.81 167.75 65.961 167.75 L 65.961 167.75 C 65.112 167.75 64.422 167.061 64.422 166.212 L 64.422 166.212 Z  M 64.422 156.981 L 64.422 154.288 C 64.422 153.439 65.112 152.75 65.961 152.75 L 65.961 152.75 C 66.81 152.75 67.499 153.439 67.499 154.288 L 67.499 156.981 C 67.499 157.83 66.81 158.519 65.961 158.519 L 65.961 158.519 C 65.112 158.519 64.422 157.83 64.422 156.981 Z " fill-rule="evenodd" fill="rgb(0,0,0)"/></g></g><g style="opacity:0.4;"><g opacity="0.1"><path d=" M 118.24 124.593 L 118.24 120.858 L 118.24 120.858 L 118.24 117.123 L 118.24 91.972 L 107.034 91.972 L 107.034 91.972 L 107.034 95.707 L 107.034 95.707 L 107.034 117.123 L 107.034 120.858 L 110.77 120.858 L 110.77 120.858 L 114.505 120.858 L 114.505 124.593 L 107.034 124.593 L 107.034 128.328 L 114.505 128.328 L 118.24 128.328 L 118.24 128.328 L 118.24 124.593 L 118.24 124.593 Z  M 110.77 117.123 L 110.77 95.707 L 114.505 95.707 L 114.505 117.123 L 110.77 117.123 L 110.77 117.123 Z " fill-rule="evenodd" fill="rgb(0,0,0)"/></g><path d=" M 104.187 84.51 L 159.812 84.51 C 162.397 84.51 164.5 86.612 164.5 89.197 L 164.5 94.51 C 164.5 95.372 163.8 96.072 162.937 96.072 C 162.075 96.072 161.375 95.372 161.375 94.51 L 161.375 89.197 C 161.375 88.336 160.674 87.635 159.812 87.635 L 104.187 87.635 C 103.326 87.635 102.625 88.336 102.625 89.197 L 102.625 159.822 C 102.625 160.684 103.326 161.385 104.187 161.385 L 159.812 161.385 C 160.674 161.385 161.375 160.684 161.375 159.822 L 161.375 154.77 C 161.375 153.907 162.075 153.207 162.937 153.207 C 163.8 153.207 164.5 153.907 164.5 154.77 L 164.5 159.822 C 164.5 162.407 162.397 164.51 159.812 164.51 L 104.187 164.51 C 101.603 164.51 99.5 162.407 99.5 159.822 L 99.5 89.197 C 99.5 86.612 101.603 84.51 104.187 84.51 Z " fill="rgb(0,0,0)"/><path d=" M 130.856 110.635 L 131.933 110.635 C 132.272 110.635 132.548 110.91 132.548 111.25 L 132.548 111.25 C 132.548 111.59 132.272 111.865 131.933 111.865 L 130.856 111.865 C 130.516 111.865 130.24 111.59 130.24 111.25 L 130.24 111.25 C 130.24 110.91 130.516 110.635 130.856 110.635 L 130.856 110.635 L 130.856 110.635 Z  M 134.548 110.635 L 135.625 110.635 C 135.965 110.635 136.24 110.91 136.24 111.25 L 136.24 111.25 C 136.24 111.59 135.965 111.865 135.625 111.865 L 134.548 111.865 C 134.208 111.865 133.933 111.59 133.933 111.25 L 133.933 111.25 C 133.933 110.91 134.208 110.635 134.548 110.635 L 134.548 110.635 L 134.548 110.635 Z  M 132.625 113.635 L 132.625 112.558 C 132.625 112.218 132.901 111.942 133.24 111.942 L 133.24 111.942 C 133.58 111.942 133.856 112.218 133.856 112.558 L 133.856 113.635 C 133.856 113.974 133.58 114.25 133.24 114.25 L 133.24 114.25 C 132.901 114.25 132.625 113.974 132.625 113.635 L 132.625 113.635 Z  M 132.625 109.942 L 132.625 108.865 C 132.625 108.526 132.901 108.25 133.24 108.25 L 133.24 108.25 C 133.58 108.25 133.856 108.526 133.856 108.865 L 133.856 109.942 C 133.856 110.282 133.58 110.558 133.24 110.558 L 133.24 110.558 C 132.901 110.558 132.625 110.282 132.625 109.942 Z " fill-rule="evenodd" fill="rgb(38,38,38)"/><path d=" M 140.856 110.635 L 141.933 110.635 C 142.272 110.635 142.548 110.91 142.548 111.25 L 142.548 111.25 C 142.548 111.59 142.272 111.865 141.933 111.865 L 140.856 111.865 C 140.516 111.865 140.24 111.59 140.24 111.25 L 140.24 111.25 C 140.24 110.91 140.516 110.635 140.856 110.635 L 140.856 110.635 L 140.856 110.635 Z  M 144.548 110.635 L 145.625 110.635 C 145.965 110.635 146.24 110.91 146.24 111.25 L 146.24 111.25 C 146.24 111.59 145.965 111.865 145.625 111.865 L 144.548 111.865 C 144.208 111.865 143.933 111.59 143.933 111.25 L 143.933 111.25 C 143.933 110.91 144.208 110.635 144.548 110.635 L 144.548 110.635 L 144.548 110.635 Z  M 142.625 113.635 L 142.625 112.558 C 142.625 112.218 142.901 111.942 143.24 111.942 L 143.24 111.942 C 143.58 111.942 143.856 112.218 143.856 112.558 L 143.856 113.635 C 143.856 113.974 143.58 114.25 143.24 114.25 L 143.24 114.25 C 142.901 114.25 142.625 113.974 142.625 113.635 L 142.625 113.635 Z  M 142.625 109.942 L 142.625 108.865 C 142.625 108.526 142.901 108.25 143.24 108.25 L 143.24 108.25 C 143.58 108.25 143.856 108.526 143.856 108.865 L 143.856 109.942 C 143.856 110.282 143.58 110.558 143.24 110.558 L 143.24 110.558 C 142.901 110.558 142.625 110.282 142.625 109.942 Z " fill-rule="evenodd" fill="rgb(38,38,38)"/><path d=" M 111.704 144.822 L 149.204 144.822 C 150.067 144.822 150.767 145.522 150.767 146.385 C 150.767 147.247 150.067 147.947 149.204 147.947 L 111.704 147.947 C 110.841 147.947 110.142 147.247 110.142 146.385 C 110.142 145.522 110.841 144.822 111.704 144.822 Z " fill="rgb(0,0,0)"/><path d=" M 110.6 153.405 C 110.891 153.114 111.292 152.947 111.705 152.947 C 112.116 152.947 112.519 153.114 112.809 153.405 C 113.1 153.696 113.267 154.099 113.267 154.51 C 113.267 154.921 113.1 155.324 112.809 155.614 C 112.519 155.905 112.116 156.072 111.705 156.072 C 111.292 156.072 110.891 155.905 110.6 155.614 C 110.309 155.324 110.142 154.921 110.142 154.51 C 110.142 154.099 110.309 153.696 110.6 153.405 Z " fill="rgb(0,0,0)"/><path d=" M 118.094 152.947 L 149.204 152.947 C 150.067 152.947 150.767 153.647 150.767 154.51 C 150.767 155.372 150.067 156.072 149.204 156.072 L 118.094 156.072 C 117.231 156.072 116.531 155.372 116.531 154.51 C 116.531 153.647 117.231 152.947 118.094 152.947 Z " fill="rgb(0,0,0)"/><path d=" M 155.116 115.086 C 155.116 105.779 147.56 98.223 138.254 98.223 C 128.947 98.223 121.391 105.779 121.391 115.086 C 121.391 124.393 128.947 131.949 138.254 131.949 C 147.56 131.949 155.116 124.393 155.116 115.086 Z  M 151.992 115.086 C 151.992 107.504 145.836 101.348 138.254 101.348 C 130.671 101.348 124.516 107.504 124.516 115.086 C 124.516 122.668 130.671 128.824 138.254 128.824 C 145.836 128.824 151.992 122.668 151.992 115.086 Z " fill-rule="evenodd" fill="rgb(0,0,0)"/><path d=" M 144.412 122.25 C 143.719 119.937 141.574 118.25 139.038 118.25 C 136.501 118.25 134.356 119.937 133.664 122.25 L 134.76 122.25 C 135.411 120.521 137.082 119.289 139.038 119.289 C 140.993 119.289 142.664 120.521 143.315 122.25 L 144.412 122.25 Z " fill="rgb(0,0,0)"/><path d=" M 138.254 90.76 C 151.667 90.76 162.58 101.672 162.58 115.086 C 162.58 122.841 158.932 129.761 153.263 134.218 L 171.398 152.353 C 172.535 153.49 174.384 153.49 175.521 152.353 C 176.072 151.803 176.375 151.07 176.375 150.292 C 176.375 149.513 176.072 148.781 175.521 148.23 L 166.246 138.955 C 165.636 138.345 165.636 137.356 166.246 136.745 C 166.856 136.135 167.845 136.135 168.456 136.745 L 177.73 146.02 C 178.872 147.161 179.5 148.678 179.5 150.292 C 179.5 151.905 178.872 153.422 177.731 154.563 C 176.553 155.741 175.006 156.329 173.459 156.329 C 171.912 156.329 170.366 155.741 169.188 154.563 L 150.64 136.015 C 147.01 138.172 142.774 139.413 138.254 139.413 C 124.84 139.413 113.927 128.5 113.927 115.086 C 113.927 101.673 124.84 90.76 138.254 90.76 Z  M 138.254 136.287 C 149.944 136.287 159.455 126.777 159.455 115.086 C 159.455 103.396 149.944 93.885 138.254 93.885 C 126.563 93.885 117.052 103.396 117.052 115.086 C 117.052 126.776 126.563 136.287 138.254 136.287 Z " fill="rgb(0,0,0)"/><path d=" M 161.328 131.827 C 161.619 131.536 162.02 131.369 162.433 131.369 C 162.844 131.369 163.247 131.536 163.537 131.827 C 163.828 132.117 163.995 132.521 163.995 132.931 C 163.995 133.343 163.828 133.746 163.537 134.036 C 163.247 134.327 162.844 134.494 162.433 134.494 C 162.02 134.494 161.619 134.327 161.328 134.036 C 161.036 133.746 160.87 133.343 160.87 132.931 C 160.87 132.521 161.036 132.117 161.328 131.827 Z " fill="rgb(0,0,0)"/></g></g><path d=" M 155.992 229.586 L 155.992 231.371 L 150.814 231.371 L 150.814 236.823 L 148.578 236.823 L 148.578 223.957 L 156.752 223.957 L 156.752 225.76 L 150.814 225.76 L 150.814 229.586 L 155.992 229.586 Z  M 158.176 232.14 L 158.176 231.954 L 158.176 231.954 Q 158.176 230.911 158.481 230.023 L 158.481 230.023 L 158.481 230.023 Q 158.786 229.135 159.356 228.481 L 159.356 228.481 L 159.356 228.481 Q 159.926 227.827 160.748 227.456 L 160.748 227.456 L 160.748 227.456 Q 161.57 227.085 162.613 227.085 L 162.613 227.085 L 162.613 227.085 Q 163.664 227.085 164.495 227.456 L 164.495 227.456 L 164.495 227.456 Q 165.325 227.827 165.895 228.481 L 165.895 228.481 L 165.895 228.481 Q 166.465 229.135 166.766 230.023 L 166.766 230.023 L 166.766 230.023 Q 167.066 230.911 167.066 231.954 L 167.066 231.954 L 167.066 232.14 L 167.066 232.14 Q 167.066 233.183 166.766 234.075 L 166.766 234.075 L 166.766 234.075 Q 166.465 234.968 165.895 235.617 L 165.895 235.617 L 165.895 235.617 Q 165.325 236.267 164.499 236.633 L 164.499 236.633 L 164.499 236.633 Q 163.673 237 162.63 237 L 162.63 237 L 162.63 237 Q 161.579 237 160.752 236.633 L 160.752 236.633 L 160.752 236.633 Q 159.926 236.267 159.356 235.617 L 159.356 235.617 L 159.356 235.617 Q 158.786 234.968 158.481 234.075 L 158.481 234.075 L 158.481 234.075 Q 158.176 233.183 158.176 232.14 L 158.176 232.14 Z  M 160.324 231.954 L 160.324 232.14 L 160.324 232.14 Q 160.324 232.785 160.456 233.359 L 160.456 233.359 L 160.456 233.359 Q 160.589 233.934 160.872 234.362 L 160.872 234.362 L 160.872 234.362 Q 161.154 234.791 161.592 235.038 L 161.592 235.038 L 161.592 235.038 Q 162.029 235.286 162.63 235.286 L 162.63 235.286 L 162.63 235.286 Q 163.222 235.286 163.66 235.038 L 163.66 235.038 L 163.66 235.038 Q 164.097 234.791 164.375 234.362 L 164.375 234.362 L 164.375 234.362 Q 164.654 233.934 164.791 233.359 L 164.791 233.359 L 164.791 233.359 Q 164.928 232.785 164.928 232.14 L 164.928 232.14 L 164.928 231.954 L 164.928 231.954 Q 164.928 231.318 164.791 230.748 L 164.791 230.748 L 164.791 230.748 Q 164.654 230.178 164.371 229.749 L 164.371 229.749 L 164.371 229.749 Q 164.088 229.321 163.651 229.065 L 163.651 229.065 L 163.651 229.065 Q 163.213 228.808 162.613 228.808 L 162.613 228.808 L 162.613 228.808 Q 162.012 228.808 161.583 229.065 L 161.583 229.065 L 161.583 229.065 Q 161.154 229.321 160.872 229.749 L 160.872 229.749 L 160.872 229.749 Q 160.589 230.178 160.456 230.748 L 160.456 230.748 L 160.456 230.748 Q 160.324 231.318 160.324 231.954 L 160.324 231.954 Z  M 175.18 236.823 L 175.127 235.887 L 175.127 235.887 Q 174.676 236.417 174.014 236.708 L 174.014 236.708 L 174.014 236.708 Q 173.351 237 172.441 237 L 172.441 237 L 172.441 237 Q 171.734 237 171.155 236.801 L 171.155 236.801 L 171.155 236.801 Q 170.576 236.602 170.161 236.174 L 170.161 236.174 L 170.161 236.174 Q 169.746 235.745 169.516 235.069 L 169.516 235.069 L 169.516 235.069 Q 169.286 234.393 169.286 233.448 L 169.286 233.448 L 169.286 227.262 L 171.433 227.262 L 171.433 233.465 L 171.433 233.465 Q 171.433 233.987 171.557 234.327 L 171.557 234.327 L 171.557 234.327 Q 171.681 234.667 171.888 234.875 L 171.888 234.875 L 171.888 234.875 Q 172.096 235.082 172.37 235.166 L 172.37 235.166 L 172.37 235.166 Q 172.644 235.25 172.944 235.25 L 172.944 235.25 L 172.944 235.25 Q 173.775 235.25 174.288 234.95 L 174.288 234.95 L 174.288 234.95 Q 174.8 234.649 175.056 234.128 L 175.056 234.128 L 175.056 227.262 L 177.204 227.262 L 177.204 236.823 L 175.18 236.823 Z  M 179.812 227.262 L 181.836 227.262 L 181.898 228.366 L 181.898 228.366 Q 182.402 227.757 183.109 227.421 L 183.109 227.421 L 183.109 227.421 Q 183.815 227.085 184.681 227.085 L 184.681 227.085 L 184.681 227.085 Q 185.371 227.085 185.932 227.275 L 185.932 227.275 L 185.932 227.275 Q 186.493 227.465 186.891 227.889 L 186.891 227.889 L 186.891 227.889 Q 187.288 228.313 187.505 228.994 L 187.505 228.994 L 187.505 228.994 Q 187.721 229.674 187.721 230.646 L 187.721 230.646 L 187.721 236.823 L 185.574 236.823 L 185.574 230.629 L 185.574 230.629 Q 185.574 230.134 185.464 229.794 L 185.464 229.794 L 185.464 229.794 Q 185.353 229.453 185.141 229.241 L 185.141 229.241 L 185.141 229.241 Q 184.929 229.029 184.615 228.936 L 184.615 228.936 L 184.615 228.936 Q 184.301 228.844 183.895 228.844 L 183.895 228.844 L 183.895 228.844 Q 183.232 228.844 182.742 229.162 L 182.742 229.162 L 182.742 229.162 Q 182.251 229.48 181.96 230.019 L 181.96 230.019 L 181.96 236.823 L 179.812 236.823 L 179.812 227.262 Z  M 189.959 232.157 L 189.959 231.972 L 189.959 231.972 Q 189.959 230.885 190.219 229.984 L 190.219 229.984 L 190.219 229.984 Q 190.48 229.082 190.971 228.437 L 190.971 228.437 L 190.971 228.437 Q 191.461 227.792 192.159 227.439 L 192.159 227.439 L 192.159 227.439 Q 192.857 227.085 193.732 227.085 L 193.732 227.085 L 193.732 227.085 Q 194.527 227.085 195.133 227.359 L 195.133 227.359 L 195.133 227.359 Q 195.738 227.633 196.189 228.146 L 196.189 228.146 L 196.189 223.25 L 198.336 223.25 L 198.336 236.823 L 196.392 236.823 L 196.286 235.834 L 196.286 235.834 Q 195.826 236.39 195.195 236.695 L 195.195 236.695 L 195.195 236.695 Q 194.563 237 193.714 237 L 193.714 237 L 193.714 237 Q 192.848 237 192.155 236.633 L 192.155 236.633 L 192.155 236.633 Q 191.461 236.267 190.975 235.621 L 190.975 235.621 L 190.975 235.621 Q 190.489 234.976 190.224 234.088 L 190.224 234.088 L 190.224 234.088 Q 189.959 233.2 189.959 232.157 L 189.959 232.157 Z  M 192.106 231.972 L 192.106 232.157 L 192.106 232.157 Q 192.106 232.794 192.225 233.355 L 192.225 233.355 L 192.225 233.355 Q 192.345 233.916 192.605 234.34 L 192.605 234.34 L 192.605 234.34 Q 192.866 234.764 193.273 235.007 L 193.273 235.007 L 193.273 235.007 Q 193.679 235.25 194.262 235.25 L 194.262 235.25 L 194.262 235.25 Q 194.987 235.25 195.451 234.928 L 195.451 234.928 L 195.451 234.928 Q 195.915 234.605 196.189 234.075 L 196.189 234.075 L 196.189 229.992 L 196.189 229.992 Q 195.915 229.462 195.446 229.153 L 195.446 229.153 L 195.446 229.153 Q 194.978 228.844 194.28 228.844 L 194.28 228.844 L 194.28 228.844 Q 193.697 228.844 193.286 229.091 L 193.286 229.091 L 193.286 229.091 Q 192.875 229.339 192.614 229.763 L 192.614 229.763 L 192.614 229.763 Q 192.354 230.187 192.23 230.757 L 192.23 230.757 L 192.23 230.757 Q 192.106 231.327 192.106 231.972 L 192.106 231.972 Z  M 203.516 223.957 L 203.304 233.032 L 201.457 233.032 L 201.254 223.957 L 203.516 223.957 Z  M 201.192 235.807 L 201.192 235.807 L 201.192 235.807 Q 201.192 235.56 201.276 235.348 L 201.276 235.348 L 201.276 235.348 Q 201.36 235.135 201.515 234.976 L 201.515 234.976 L 201.515 234.976 Q 201.669 234.817 201.895 234.729 L 201.895 234.729 L 201.895 234.729 Q 202.12 234.641 202.412 234.641 L 202.412 234.641 L 202.412 234.641 Q 202.703 234.641 202.929 234.729 L 202.929 234.729 L 202.929 234.729 Q 203.154 234.817 203.308 234.976 L 203.308 234.976 L 203.308 234.976 Q 203.463 235.135 203.547 235.348 L 203.547 235.348 L 203.547 235.348 Q 203.631 235.56 203.631 235.807 L 203.631 235.807 L 203.631 235.807 Q 203.631 236.293 203.313 236.62 L 203.313 236.62 L 203.313 236.62 Q 202.995 236.947 202.412 236.947 L 202.412 236.947 L 202.412 236.947 Q 201.828 236.947 201.51 236.62 L 201.51 236.62 L 201.51 236.62 Q 201.192 236.293 201.192 235.807 Z  M 108.079 236.823 L 104.385 236.823 L 104.385 223.957 L 108.185 223.957 L 108.185 223.957 Q 109.475 223.957 110.54 224.39 L 110.54 224.39 L 110.54 224.39 Q 111.605 224.823 112.369 225.623 L 112.369 225.623 L 112.369 225.623 Q 113.134 226.422 113.558 227.554 L 113.558 227.554 L 113.558 227.554 Q 113.982 228.685 113.982 230.081 L 113.982 230.081 L 113.982 230.717 L 113.982 230.717 Q 113.982 232.113 113.562 233.24 L 113.562 233.24 L 113.562 233.24 Q 113.143 234.367 112.369 235.162 L 112.369 235.162 L 112.369 235.162 Q 111.596 235.957 110.505 236.39 L 110.505 236.39 L 110.505 236.39 Q 109.413 236.823 108.079 236.823 L 108.079 236.823 Z  M 108.185 225.76 L 106.621 225.76 L 106.621 235.038 L 108.079 235.038 L 108.079 235.038 Q 108.989 235.038 109.679 234.742 L 109.679 234.742 L 109.679 234.742 Q 110.368 234.446 110.823 233.889 L 110.823 233.889 L 110.823 233.889 Q 111.278 233.333 111.508 232.529 L 111.508 232.529 L 111.508 232.529 Q 111.738 231.724 111.738 230.717 L 111.738 230.717 L 111.738 230.063 L 111.738 230.063 Q 111.738 227.969 110.827 226.864 L 110.827 226.864 L 110.827 226.864 Q 109.917 225.76 108.185 225.76 L 108.185 225.76 Z  M 124.358 236.823 L 122.167 236.823 L 122.167 236.823 Q 122.078 236.655 122.021 236.426 L 122.021 236.426 L 122.021 236.426 Q 121.963 236.196 121.919 235.931 L 121.919 235.931 L 121.919 235.931 Q 121.707 236.152 121.446 236.346 L 121.446 236.346 L 121.446 236.346 Q 121.186 236.54 120.872 236.686 L 120.872 236.686 L 120.872 236.686 Q 120.558 236.832 120.192 236.916 L 120.192 236.916 L 120.192 236.916 Q 119.825 237 119.41 237 L 119.41 237 L 119.41 237 Q 118.694 237 118.093 236.783 L 118.093 236.783 L 118.093 236.783 Q 117.492 236.567 117.063 236.183 L 117.063 236.183 L 117.063 236.183 Q 116.635 235.798 116.392 235.277 L 116.392 235.277 L 116.392 235.277 Q 116.149 234.755 116.149 234.146 L 116.149 234.146 L 116.149 234.146 Q 116.149 233.377 116.44 232.785 L 116.44 232.785 L 116.44 232.785 Q 116.732 232.193 117.289 231.795 L 117.289 231.795 L 117.289 231.795 Q 117.846 231.397 118.654 231.19 L 118.654 231.19 L 118.654 231.19 Q 119.463 230.982 120.497 230.982 L 120.497 230.982 L 121.849 230.982 L 121.849 230.355 L 121.849 230.355 Q 121.849 229.612 121.433 229.166 L 121.433 229.166 L 121.433 229.166 Q 121.018 228.72 120.17 228.72 L 120.17 228.72 L 120.17 228.72 Q 119.79 228.72 119.48 228.822 L 119.48 228.822 L 119.48 228.822 Q 119.171 228.923 118.955 229.096 L 118.955 229.096 L 118.955 229.096 Q 118.738 229.268 118.619 229.506 L 118.619 229.506 L 118.619 229.506 Q 118.499 229.745 118.499 230.019 L 118.499 230.019 L 116.352 230.019 L 116.352 230.019 Q 116.352 229.453 116.63 228.928 L 116.63 228.928 L 116.63 228.928 Q 116.909 228.402 117.421 227.991 L 117.421 227.991 L 117.421 227.991 Q 117.934 227.58 118.663 227.333 L 118.663 227.333 L 118.663 227.333 Q 119.392 227.085 120.293 227.085 L 120.293 227.085 L 120.293 227.085 Q 121.097 227.085 121.778 227.293 L 121.778 227.293 L 121.778 227.293 Q 122.458 227.5 122.953 227.911 L 122.953 227.911 L 122.953 227.911 Q 123.448 228.322 123.722 228.936 L 123.722 228.936 L 123.722 228.936 Q 123.996 229.551 123.996 230.372 L 123.996 230.372 L 123.996 234.614 L 123.996 234.614 Q 123.996 235.904 124.358 236.673 L 124.358 236.673 L 124.358 236.823 Z  M 119.807 235.277 L 119.807 235.277 L 119.807 235.277 Q 120.178 235.277 120.501 235.18 L 120.501 235.18 L 120.501 235.18 Q 120.824 235.082 121.084 234.923 L 121.084 234.923 L 121.084 234.923 Q 121.345 234.764 121.539 234.557 L 121.539 234.557 L 121.539 234.557 Q 121.734 234.349 121.849 234.137 L 121.849 234.137 L 121.849 232.334 L 120.691 232.334 L 120.691 232.334 Q 119.498 232.334 118.897 232.75 L 118.897 232.75 L 118.897 232.75 Q 118.296 233.165 118.296 233.925 L 118.296 233.925 L 118.296 233.925 Q 118.296 234.216 118.393 234.464 L 118.393 234.464 L 118.393 234.464 Q 118.491 234.711 118.685 234.892 L 118.685 234.892 L 118.685 234.892 Q 118.879 235.074 119.158 235.175 L 119.158 235.175 L 119.158 235.175 Q 119.436 235.277 119.807 235.277 Z  M 127.241 224.938 L 129.388 224.938 L 129.388 227.262 L 131.076 227.262 L 131.076 228.853 L 129.388 228.853 L 129.388 234.19 L 129.388 234.19 Q 129.388 234.517 129.459 234.72 L 129.459 234.72 L 129.459 234.72 Q 129.529 234.923 129.662 235.034 L 129.662 235.034 L 129.662 235.034 Q 129.795 235.144 129.976 235.184 L 129.976 235.184 L 129.976 235.184 Q 130.157 235.224 130.378 235.224 L 130.378 235.224 L 130.378 235.224 Q 130.599 235.224 130.806 235.193 L 130.806 235.193 L 130.806 235.193 Q 131.014 235.162 131.129 235.135 L 131.129 235.135 L 131.129 236.797 L 131.129 236.797 Q 130.873 236.867 130.532 236.934 L 130.532 236.934 L 130.532 236.934 Q 130.192 237 129.715 237 L 129.715 237 L 129.715 237 Q 129.185 237 128.73 236.859 L 128.73 236.859 L 128.73 236.859 Q 128.275 236.717 127.943 236.399 L 127.943 236.399 L 127.943 236.399 Q 127.612 236.081 127.426 235.568 L 127.426 235.568 L 127.426 235.568 Q 127.241 235.056 127.241 234.314 L 127.241 234.314 L 127.241 228.853 L 125.668 228.853 L 125.668 227.262 L 127.241 227.262 L 127.241 224.938 Z  M 141.072 236.823 L 138.881 236.823 L 138.881 236.823 Q 138.792 236.655 138.735 236.426 L 138.735 236.426 L 138.735 236.426 Q 138.677 236.196 138.633 235.931 L 138.633 235.931 L 138.633 235.931 Q 138.421 236.152 138.16 236.346 L 138.16 236.346 L 138.16 236.346 Q 137.9 236.54 137.586 236.686 L 137.586 236.686 L 137.586 236.686 Q 137.272 236.832 136.906 236.916 L 136.906 236.916 L 136.906 236.916 Q 136.539 237 136.123 237 L 136.123 237 L 136.123 237 Q 135.408 237 134.807 236.783 L 134.807 236.783 L 134.807 236.783 Q 134.206 236.567 133.777 236.183 L 133.777 236.183 L 133.777 236.183 Q 133.349 235.798 133.106 235.277 L 133.106 235.277 L 133.106 235.277 Q 132.863 234.755 132.863 234.146 L 132.863 234.146 L 132.863 234.146 Q 132.863 233.377 133.154 232.785 L 133.154 232.785 L 133.154 232.785 Q 133.446 232.193 134.003 231.795 L 134.003 231.795 L 134.003 231.795 Q 134.559 231.397 135.368 231.19 L 135.368 231.19 L 135.368 231.19 Q 136.176 230.982 137.21 230.982 L 137.21 230.982 L 138.562 230.982 L 138.562 230.355 L 138.562 230.355 Q 138.562 229.612 138.147 229.166 L 138.147 229.166 L 138.147 229.166 Q 137.732 228.72 136.883 228.72 L 136.883 228.72 L 136.883 228.72 Q 136.503 228.72 136.194 228.822 L 136.194 228.822 L 136.194 228.822 Q 135.885 228.923 135.668 229.096 L 135.668 229.096 L 135.668 229.096 Q 135.452 229.268 135.333 229.506 L 135.333 229.506 L 135.333 229.506 Q 135.213 229.745 135.213 230.019 L 135.213 230.019 L 133.066 230.019 L 133.066 230.019 Q 133.066 229.453 133.344 228.928 L 133.344 228.928 L 133.344 228.928 Q 133.623 228.402 134.135 227.991 L 134.135 227.991 L 134.135 227.991 Q 134.648 227.58 135.377 227.333 L 135.377 227.333 L 135.377 227.333 Q 136.106 227.085 137.007 227.085 L 137.007 227.085 L 137.007 227.085 Q 137.811 227.085 138.492 227.293 L 138.492 227.293 L 138.492 227.293 Q 139.172 227.5 139.667 227.911 L 139.667 227.911 L 139.667 227.911 Q 140.162 228.322 140.436 228.936 L 140.436 228.936 L 140.436 228.936 Q 140.71 229.551 140.71 230.372 L 140.71 230.372 L 140.71 234.614 L 140.71 234.614 Q 140.71 235.904 141.072 236.673 L 141.072 236.673 L 141.072 236.823 Z  M 136.521 235.277 L 136.521 235.277 L 136.521 235.277 Q 136.892 235.277 137.215 235.18 L 137.215 235.18 L 137.215 235.18 Q 137.537 235.082 137.798 234.923 L 137.798 234.923 L 137.798 234.923 Q 138.059 234.764 138.253 234.557 L 138.253 234.557 L 138.253 234.557 Q 138.448 234.349 138.562 234.137 L 138.562 234.137 L 138.562 232.334 L 137.405 232.334 L 137.405 232.334 Q 136.212 232.334 135.611 232.75 L 135.611 232.75 L 135.611 232.75 Q 135.01 233.165 135.01 233.925 L 135.01 233.925 L 135.01 233.925 Q 135.01 234.216 135.107 234.464 L 135.107 234.464 L 135.107 234.464 Q 135.204 234.711 135.399 234.892 L 135.399 234.892 L 135.399 234.892 Q 135.593 235.074 135.872 235.175 L 135.872 235.175 L 135.872 235.175 Q 136.15 235.277 136.521 235.277 Z  M 85.575 223.957 L 85.575 236.823 L 83.34 236.823 L 77.605 227.695 L 77.605 236.823 L 75.369 236.823 L 75.369 223.957 L 77.605 223.957 L 83.357 233.121 L 83.357 223.957 L 85.575 223.957 Z  M 88.06 232.14 L 88.06 231.954 L 88.06 231.954 Q 88.06 230.911 88.365 230.023 L 88.365 230.023 L 88.365 230.023 Q 88.67 229.135 89.24 228.481 L 89.24 228.481 L 89.24 228.481 Q 89.81 227.827 90.632 227.456 L 90.632 227.456 L 90.632 227.456 Q 91.454 227.085 92.496 227.085 L 92.496 227.085 L 92.496 227.085 Q 93.548 227.085 94.379 227.456 L 94.379 227.456 L 94.379 227.456 Q 95.209 227.827 95.779 228.481 L 95.779 228.481 L 95.779 228.481 Q 96.349 229.135 96.65 230.023 L 96.65 230.023 L 96.65 230.023 Q 96.95 230.911 96.95 231.954 L 96.95 231.954 L 96.95 232.14 L 96.95 232.14 Q 96.95 233.183 96.65 234.075 L 96.65 234.075 L 96.65 234.075 Q 96.349 234.968 95.779 235.617 L 95.779 235.617 L 95.779 235.617 Q 95.209 236.267 94.383 236.633 L 94.383 236.633 L 94.383 236.633 Q 93.557 237 92.514 237 L 92.514 237 L 92.514 237 Q 91.462 237 90.636 236.633 L 90.636 236.633 L 90.636 236.633 Q 89.81 236.267 89.24 235.617 L 89.24 235.617 L 89.24 235.617 Q 88.67 234.968 88.365 234.075 L 88.365 234.075 L 88.365 234.075 Q 88.06 233.183 88.06 232.14 L 88.06 232.14 Z  M 90.208 231.954 L 90.208 232.14 L 90.208 232.14 Q 90.208 232.785 90.34 233.359 L 90.34 233.359 L 90.34 233.359 Q 90.473 233.934 90.756 234.362 L 90.756 234.362 L 90.756 234.362 Q 91.038 234.791 91.476 235.038 L 91.476 235.038 L 91.476 235.038 Q 91.913 235.286 92.514 235.286 L 92.514 235.286 L 92.514 235.286 Q 93.106 235.286 93.544 235.038 L 93.544 235.038 L 93.544 235.038 Q 93.981 234.791 94.259 234.362 L 94.259 234.362 L 94.259 234.362 Q 94.538 233.934 94.675 233.359 L 94.675 233.359 L 94.675 233.359 Q 94.812 232.785 94.812 232.14 L 94.812 232.14 L 94.812 231.954 L 94.812 231.954 Q 94.812 231.318 94.675 230.748 L 94.675 230.748 L 94.675 230.748 Q 94.538 230.178 94.255 229.749 L 94.255 229.749 L 94.255 229.749 Q 93.972 229.321 93.535 229.065 L 93.535 229.065 L 93.535 229.065 Q 93.097 228.808 92.496 228.808 L 92.496 228.808 L 92.496 228.808 Q 91.895 228.808 91.467 229.065 L 91.467 229.065 L 91.467 229.065 Q 91.038 229.321 90.756 229.749 L 90.756 229.749 L 90.756 229.749 Q 90.473 230.178 90.34 230.748 L 90.34 230.748 L 90.34 230.748 Q 90.208 231.318 90.208 231.954 L 90.208 231.954 Z " fill="rgb(113,113,113)"/></g></svg>