<?xml version="1.0" encoding="utf-8"?>
<!-- Generator: Adobe Illustrator 26.0.1, SVG Export Plug-In . SVG Version: 6.00 Build 0)  -->
<svg version="1.1" id="Layer_1" xmlns="http://www.w3.org/2000/svg" xmlns:xlink="http://www.w3.org/1999/xlink" x="0px" y="0px"
	 viewBox="0 0 20 20" style="enable-background:new 0 0 20 20;" xml:space="preserve">
<style type="text/css">
	.st0{fill-rule:evenodd;clip-rule:evenodd;fill:#DBDADA;}
</style>
<g>
	<path   d="M8.4,16.6c-0.1-0.1-0.1-0.2-0.2-0.2l-4.5-2.7c-0.1-0.1-0.2-0.2-0.3-0.3S3.3,13,3.3,12.9V7.1
		c0-0.1,0-0.3,0.1-0.4c0.1-0.1,0.2-0.2,0.3-0.3l5.9-3.6C9.7,2.7,9.8,2.7,10,2.7s0.3,0,0.4,0.1l5.9,3.6c0.1,0.1,0.2,0.2,0.3,0.3
		c0.1,0.1,0.1,0.3,0.1,0.4v0.6c0,0.2,0.1,0.4,0.2,0.6c0.2,0.2,0.4,0.2,0.6,0.2s0.4-0.1,0.6-0.2c0.2-0.2,0.2-0.4,0.2-0.6V7.1
		c0-0.4-0.1-0.9-0.3-1.2c-0.2-0.4-0.5-0.7-0.9-0.9l-5.9-3.6C10.9,1.1,10.5,1,10,1S9.1,1.1,8.7,1.4L2.8,5C2.4,5.2,2.1,5.5,1.9,5.9
		C1.7,6.3,1.6,6.7,1.6,7.1v5.8c0,0.4,0.1,0.9,0.3,1.2c0.2,0.4,0.5,0.7,0.9,0.9l4.5,2.7c0.1,0.1,0.2,0.1,0.3,0.1c0.1,0,0.2,0,0.3,0
		c0.1,0,0.2-0.1,0.3-0.1c0.1-0.1,0.2-0.1,0.2-0.2c0.1-0.1,0.1-0.2,0.1-0.3c0-0.1,0-0.2,0-0.3C8.5,16.8,8.5,16.7,8.4,16.6z"/>
	<path   d="M18.5,12.8c-0.2-0.2-0.4-0.2-0.6-0.2h-0.3l0,0c-0.1-0.5-0.3-1-0.6-1.5l0,0l0.2-0.2c0.2-0.2,0.2-0.4,0.2-0.6
		c0-0.2-0.1-0.4-0.2-0.6c-0.2-0.2-0.4-0.2-0.6-0.2S16.1,9.4,16,9.6l-0.2,0.2l0,0c-0.4-0.3-1-0.5-1.5-0.6l0,0V8.9
		c0-0.2-0.1-0.4-0.2-0.6C13.8,8.1,13.6,8,13.4,8s-0.4,0.1-0.6,0.2c-0.2,0.2-0.2,0.4-0.2,0.6v0.3l0,0c-0.5,0.1-1,0.3-1.5,0.6
		c0,0,0,0,0,0l-0.2-0.2c-0.2-0.1-0.4-0.2-0.6-0.2c-0.2,0-0.4,0.1-0.6,0.2S9.4,10,9.4,10.2s0.1,0.4,0.2,0.6L9.8,11l0,0
		c-0.3,0.4-0.5,0.9-0.6,1.5c0,0,0,0,0,0H8.9c-0.2,0-0.4,0.1-0.6,0.2C8.1,12.9,8,13.1,8,13.4c0,0.2,0.1,0.4,0.2,0.6
		c0.2,0.2,0.4,0.2,0.6,0.2h0.3l0,0c0.1,0.5,0.3,1,0.6,1.5c0,0,0,0,0,0L9.6,16c-0.1,0.2-0.2,0.4-0.2,0.6c0,0.2,0.1,0.4,0.2,0.6
		c0.2,0.2,0.4,0.2,0.6,0.2s0.4-0.1,0.6-0.2l0.2-0.2c0,0,0,0,0,0c0.4,0.3,0.9,0.5,1.5,0.6l0,0v0.3c0,0.2,0.1,0.4,0.2,0.6
		c0.2,0.2,0.4,0.2,0.6,0.2s0.4-0.1,0.6-0.2c0.2-0.2,0.2-0.4,0.2-0.6v-0.3v0c0.5-0.1,1-0.3,1.5-0.6l0,0l0.2,0.2
		c0.2,0.2,0.4,0.2,0.6,0.2c0.2,0,0.4-0.1,0.6-0.2c0.2-0.2,0.2-0.4,0.2-0.6c0-0.2-0.1-0.4-0.2-0.6l-0.2-0.2c0,0,0,0,0,0
		c0.3-0.4,0.5-0.9,0.6-1.5h0.4c0.2,0,0.4-0.1,0.6-0.2c0.2-0.2,0.2-0.4,0.2-0.6S18.6,12.9,18.5,12.8z M15.7,14.3
		c-0.1,0.3-0.3,0.6-0.5,0.8c-0.2,0.2-0.5,0.4-0.8,0.5c-0.3,0.1-0.6,0.2-1,0.2c-0.3,0-0.7-0.1-1-0.2c-0.3-0.1-0.6-0.3-0.8-0.5
		c-0.2-0.2-0.4-0.5-0.5-0.8c-0.1-0.3-0.2-0.6-0.2-1c0-0.3,0.1-0.7,0.2-1c0.1-0.3,0.3-0.6,0.5-0.8c0.2-0.2,0.5-0.4,0.8-0.5
		c0.3-0.1,0.6-0.2,1-0.2c0.3,0,0.7,0.1,1,0.2c0.3,0.1,0.6,0.3,0.8,0.5c0.2,0.2,0.4,0.5,0.5,0.8c0.1,0.3,0.2,0.6,0.2,1
		C15.9,13.7,15.8,14,15.7,14.3z"/>
</g>
</svg>
